HIERARCHY
ROOT hip
{
	OFFSET 0.000000 0.000000 0.000000 
	CHANNELS 6 Xposition Yposition Zposition Xrotation Zrotation Yrotation
	JOINT abdomen
	{
		OFFSET 0.000000 3.402643 0.000000 
		CHANNELS 3 Xrotation Zrotation Yrotation
		JOINT chest
		{
			OFFSET 0.000000 8.438565 -0.680529 
			CHANNELS 3 Xrotation Zrotation Yrotation
			JOINT neck
			{
				OFFSET 0.000000 10.207942 -0.272212 
				CHANNELS 3 Xrotation Zrotation Yrotation
				JOINT head
				{
					OFFSET 0.000000 3.130431 0.000000 
					CHANNELS 3 Xrotation Zrotation Yrotation
					End Site
					{
						OFFSET 0.000000 3.130435 0.000000 
					}
				}
			}
			JOINT lCollar
			{
				OFFSET 3.470700 6.669187 -0.816635 
				CHANNELS 3 Yrotation Zrotation Xrotation
				JOINT lShldr
				{
					OFFSET 3.198488 0.000000 0.000000 
					CHANNELS 3 Zrotation Yrotation Xrotation
					JOINT lForeArm
					{
						OFFSET 10.139888 0.000000 0.000000 
						CHANNELS 3 Yrotation Zrotation Xrotation
						JOINT lHand
						{
							OFFSET 8.370511 0.000000 0.000000 
							CHANNELS 3 Zrotation Yrotation Xrotation
							End Site
							{
								OFFSET 4.083176 0.000000 0.000000 
							}
						}
					}
				}
			}
			JOINT rCollar
			{
				OFFSET -3.470700 6.669187 -0.816635 
				CHANNELS 3 Yrotation Zrotation Xrotation
				JOINT rShldr
				{
					OFFSET -3.198488 0.000000 0.000000 
					CHANNELS 3 Zrotation Yrotation Xrotation
					JOINT rForeArm
					{
						OFFSET -10.139888 0.000000 0.000000 
						CHANNELS 3 Yrotation Zrotation Xrotation
						JOINT rHand
						{
							OFFSET -8.370511 0.000000 0.000000 
							CHANNELS 3 Zrotation Yrotation Xrotation
							End Site
							{
								OFFSET -4.083176 0.000000 0.000000 
							}
						}
					}
				}
			}
		}
	}
	JOINT lThigh
	{
		OFFSET 5.308129 -1.633274 1.361059 
		CHANNELS 3 Xrotation Zrotation Yrotation
		JOINT lShin
		{
			OFFSET -2.041588 -20.007561 0.000000 
			CHANNELS 3 Xrotation Zrotation Yrotation
			JOINT lFoot
			{
				OFFSET 0.000000 -19.190928 -1.224953 
				CHANNELS 3 Xrotation Yrotation Zrotation
				End Site
				{
					OFFSET 0.000000 -2.449906 4.627600 
				}
			}
		}
	}
	JOINT rThigh
	{
		OFFSET -5.308129 -1.633274 1.361059 
		CHANNELS 3 Xrotation Zrotation Yrotation
		JOINT rShin
		{
			OFFSET 2.041588 -20.007561 0.000000 
			CHANNELS 3 Xrotation Zrotation Yrotation
			JOINT rFoot
			{
				OFFSET 0.000000 -19.190928 -1.224953 
				CHANNELS 3 Xrotation Yrotation Zrotation
				End Site
				{
					OFFSET 0.000000 -2.449906 4.627600 
				}
			}
		}
	}
}
MOTION
Frames: 10
Frame Time: 0.033333
-0.404122 37.130665 -3.675799 0.457853 -2.690719 -9.053087 40.436348 -7.296000 24.636003 -0.028592 -4.130859 -0.010444 -8.544920 -0.009766 -0.009767 -4.854056 -2.515662 -16.021738 1.992188 -2.001953 0.000341 -82.117920 -40.177139 4.730412 -80.945358 -0.516385 8.878226 -39.520596 -13.644329 -116.241158 -2.001953 1.992188 0.000000 53.096619 59.530323 41.044468 83.734093 0.483108 8.905699 31.047045 -6.616746 -66.720955 -40.235252 7.420026 1.321530 29.665083 -1.221859 -2.460651 -2.163859 5.261648 -5.120466 12.339599 -4.108821 5.595536 89.524986 -2.558885 4.155859 -6.510483 -1.079414 7.866275 
-0.404122 35.109756 -6.947411 0.403578 -2.426788 -8.093523 42.361565 -7.223768 22.157522 -0.028655 -3.759766 -0.010385 -8.544920 -0.009766 -0.009767 -7.072154 -2.484158 -14.721260 1.992188 -2.001953 0.000341 -81.366936 -41.756905 4.500196 -82.011482 -0.501411 8.885723 -39.520596 -13.644329 -116.241158 -2.001953 1.992188 0.000000 51.141655 60.351345 38.970650 84.104965 0.484823 8.909131 30.478493 -6.316982 -66.143303 -40.682117 5.800066 -0.281875 43.881966 -0.533127 -3.228447 -3.129863 5.042332 -3.861362 6.508328 -3.784721 5.038741 98.751106 -3.203091 4.031818 -2.058097 0.225062 7.312960 
-0.401617 34.310890 -10.216634 0.371002 -2.142055 -7.016650 44.281200 -7.057408 19.675915 -0.028720 -3.378906 -0.010324 -8.544920 -0.009766 -0.009767 -9.261607 -2.317828 -13.419539 1.992188 -2.001953 0.000341 -80.529091 -43.250095 4.505769 -83.195450 -0.504733 8.904868 -39.520596 -13.644329 -116.241158 -2.001953 1.992188 0.000000 48.939274 60.920364 36.470772 84.514885 0.486597 8.920624 29.857933 -5.974398 -65.514755 -40.314198 4.764427 0.153774 51.070171 -0.120955 -3.535696 -10.024487 4.980118 -2.748400 0.975866 -3.542279 4.461562 105.269974 -3.642842 3.896829 1.241313 0.820977 6.592502 
-0.399113 33.512074 -13.485659 0.339498 -1.855225 -5.940699 46.190182 -6.803633 17.204826 -0.028784 -3.007812 -0.010265 -8.544920 -0.009766 -0.009767 -11.443275 -2.100534 -12.127697 1.992188 -2.001953 0.000341 -79.674690 -44.735821 4.474825 -84.386032 -0.519168 8.913160 -39.520596 -13.644329 -116.241158 -2.001953 1.992188 0.000000 46.673679 61.437424 33.907173 84.924797 0.488243 8.922336 29.237440 -5.626938 -64.876984 -39.968742 3.720001 0.566668 58.255524 0.306170 -3.781587 -16.909019 4.772294 -1.657681 -4.545161 -3.365565 3.882779 111.764359 -4.051946 3.714957 4.514264 1.379328 5.852440 
-0.399113 32.988605 -16.757488 0.313477 -1.527858 -4.787097 47.310234 -6.260489 14.836127 -0.028847 -2.636719 -0.010205 -8.544920 -0.009766 -0.009767 -12.491473 -1.688512 -10.766487 1.992188 -2.001953 0.000341 -78.815491 -45.299465 4.733366 -85.649498 -0.519413 8.932820 -39.520596 -13.644329 -116.241158 -2.001953 1.992188 0.000000 45.404350 61.217422 32.314423 85.373795 0.480134 8.922341 28.571272 -5.261684 -64.204865 -35.028282 3.271231 0.804155 59.025059 0.346315 -3.823677 -23.053398 3.984432 -0.979189 -10.097245 -3.242048 3.308994 113.903435 -4.188477 3.660235 5.497137 1.269180 5.253421 
-0.399113 32.465183 -20.029188 0.291583 -1.208504 -3.633651 48.395588 -5.664323 12.493342 -0.028909 -2.275391 -0.010146 -8.544920 -0.009766 -0.009767 -13.532761 -1.252466 -9.406726 1.992188 -2.001953 0.000341 -77.943001 -45.873390 4.974031 -86.916161 -0.520389 8.947715 -39.520596 -13.644329 -116.241158 -2.001953 1.992188 0.000000 44.181782 60.980522 30.774656 85.812988 0.481607 8.932524 27.907570 -4.869782 -63.540203 -30.093765 2.802058 0.982348 59.795670 0.385327 -3.837001 -29.164242 3.099224 -0.419944 -15.628577 -3.172791 2.720331 116.034409 -4.315386 3.575965 6.473067 1.152553 4.688587 
-0.399113 32.390114 -23.300884 0.262619 -0.887859 -2.451483 48.055485 -4.661232 10.239213 -0.028967 -1.933594 -0.010090 -8.544920 -0.009766 -0.009767 -12.437166 -0.735160 -7.891350 1.992188 -2.001953 0.000341 -77.383430 -44.914917 5.602639 -88.228073 -0.525305 8.955112 -39.520596 -13.644329 -116.241158 -2.001953 1.992188 0.000000 44.874763 59.685875 31.497383 86.271706 0.482989 8.932077 27.248487 -4.463966 -62.857822 -23.467316 2.566465 1.079319 57.806473 0.276822 -3.786519 -34.150677 2.166791 -0.030446 -21.352242 -3.144157 2.130496 117.040916 -4.365236 3.554040 6.733023 0.979558 4.086565 
-0.399113 32.315079 -26.572580 0.246925 -0.566267 -1.269662 47.680180 -3.665471 7.975061 -0.029027 -1.582031 -0.010032 -8.544920 -0.009766 -0.009767 -11.320580 -0.242635 -6.367255 1.992188 -2.001953 0.000341 -76.807755 -43.958080 6.236870 -89.539612 -0.510737 8.976847 -39.520596 -13.644329 -116.241158 -2.001953 1.992188 0.000000 45.523647 58.385864 32.173748 86.730392 0.493976 8.941387 26.577459 -4.049151 -62.184174 -16.854874 2.324318 1.100291 55.810841 0.108667 -3.675518 -39.081337 1.165436 0.240381 -27.082005 -3.182803 1.509428 118.038170 -4.431849 3.509853 6.987631 0.797865 3.493950 
-0.401617 32.670689 -29.846777 0.254226 -0.234375 -0.078164 46.462269 -2.535899 5.777048 -0.029084 -1.250000 -0.009976 -8.544920 -0.009766 -0.009767 -9.068144 0.068126 -4.736325 1.992188 -2.001953 0.000341 -76.650635 -42.115700 7.210095 -90.846710 -0.525516 8.986061 -39.520596 -13.644329 -116.241158 -2.001953 1.992188 0.000000 46.751961 56.489594 33.817310 87.179375 0.485252 8.941351 25.921015 -3.631616 -61.508102 -6.466223 2.769609 0.911349 46.400394 -0.423029 -3.307383 -39.077583 0.911308 -0.288994 -31.990643 -3.310492 0.976941 117.216896 -4.375131 3.546804 6.798455 0.606621 3.039302 
-0.404122 33.026318 -33.120972 0.255820 0.097637 1.123062 45.193573 -1.442531 3.555772 -0.029140 -0.917969 -0.009921 -8.544920 -0.009766 -0.009767 -6.803986 0.312044 -3.095711 1.992188 -2.001953 0.000341 -76.445572 -40.270920 8.153113 -92.154755 -0.531037 9.005875 -39.520596 -13.644329 -116.241158 -2.001953 1.992188 0.000000 47.839275 54.576813 35.319679 87.628311 0.495905 8.951068 25.265814 -3.207371 -60.847061 3.903621 3.250862 0.791865 37.002525 -0.915672 -2.845923 -39.078991 0.654802 -0.832450 -36.880226 -3.486000 0.438578 116.396065 -4.334947 3.564403 6.628050 0.422644 2.554942 
